<?xml version="1.0" encoding="utf-8"?>
<!-- Generator: Adobe Illustrator 19.0.0, SVG Export Plug-In . SVG Version: 6.00 Build 0)  -->
<svg version="1.1" id="Layer_1" xmlns="http://www.w3.org/2000/svg" xmlns:xlink="http://www.w3.org/1999/xlink" x="0px" y="0px"
	 viewBox="0 0 244.1 247" style="enable-background:new 0 0 244.1 247;" xml:space="preserve">
<style type="text/css">
	.st0{clip-path:url(#SVGID_2_);fill:#fbfbfb;}
</style>
<g>
	<defs>
		<rect id="SVGID_1_" width="244.1" height="247"/>
	</defs>
	<clipPath id="SVGID_2_">
		<use xlink:href="#SVGID_1_"  style="overflow:visible;"/>
	</clipPath>
	<path class="st0" d="M201.5,36.9C184.9,13.8,158.1,0,129.7,0C81,0,41.4,39.6,41.4,88.3c0,48.7,39.6,88.3,88.3,88.3
		c29.3,0,56.6-14.5,73-38.7c-6.5-5.5-15-8.7-24.2-8.7c-7,0-13.5,1.8-19,5.1c-8.8,5.7-19,8.9-29.8,8.9c-30.2,0-54.8-24.6-54.8-54.8
		c0-30.2,24.6-54.8,54.8-54.8c10,0,19.6,2.8,28,7.8c5.6,3.3,11.9,4.9,18.9,4.9c7,0,13.6-1.9,19.2-5.2l5.4-3.8L201.5,36.9z"/>
	<path class="st0" d="M240.8,240.2H33.3h-30c-4.4,0-4.4,6.8,0,6.8h207.5h30C245.2,247,245.2,240.2,240.8,240.2"/>
	<path class="st0" d="M203.5,218.9H61.3H40.6c-4.4,0-4.4,6.8,0,6.8h142.2h20.7C207.9,225.7,207.9,218.9,203.5,218.9"/>
	<path class="st0" d="M180.4,197.6H63.7c-4.4,0-4.4,6.8,0,6.8h116.8C184.8,204.4,184.8,197.6,180.4,197.6"/>
</g>
</svg>
