<?xml version="1.0" encoding="utf-8"?>
<!-- Generator: Adobe Illustrator 19.0.0, SVG Export Plug-In . SVG Version: 6.00 Build 0)  -->
<svg version="1.1" id="Layer_1" xmlns="http://www.w3.org/2000/svg" xmlns:xlink="http://www.w3.org/1999/xlink" x="0px" y="0px"
	 viewBox="0 0 480 480" style="enable-background:new 0 0 480 480;" xml:space="preserve">
<style type="text/css">
	.st0{fill:#FFFFFF;}
	.st1{fill:#D51F37;}
</style>
<circle class="st0" cx="240" cy="240" r="241"/>
<g>
	<path class="st1" d="M240,237c30.5,0,55.3-30.1,55.3-67.2c0-37.1-8.1-67.2-55.3-67.2c-47.2,0-55.3,30.1-55.3,67.2
		C184.7,206.9,209.5,237,240,237z"/>
	<path class="st1" d="M344.4,336.9c-1-64.6-9.5-83.1-74.1-94.7c0,0-9.1,11.6-30.3,11.6s-30.3-11.6-30.3-11.6
		c-63.9,11.5-72.9,29.7-74,92.6c-0.1,5.1-0.1,5.4-0.2,4.8c0,1.1,0,3.2,0,6.8c0,0,15.4,31,104.5,31s104.5-31,104.5-31
		c0-2.3,0-3.9,0-5C344.5,341.7,344.4,341,344.4,336.9z"/>
	<path class="st1" d="M316.8,225c24.8,0,44.9-24.4,44.9-54.6c0-30.1-6.6-54.6-44.9-54.6c-6.4,0-12,0.7-16.8,2
		c8.9,16.3,10.1,36.1,10.1,52c0,17.9-4.9,35-13.8,49.2C302.4,222.8,309.4,225,316.8,225z"/>
	<path class="st1" d="M401.5,306.1c-0.8-52.5-7.7-67.5-60.2-76.9c0,0-7.4,9.4-24.6,9.4c-0.7,0-1.4,0-2.1-0.1
		c10.9,4.9,20.9,11.8,28.2,21.8c12.7,17.4,15.6,40.7,16.2,75c35.3-7,42.5-21.5,42.5-21.5c0-1.9,0-3.2,0-4.1
		C401.6,310.1,401.6,309.5,401.5,306.1z"/>
	<path class="st1" d="M163.2,225c7.4,0,14.4-2.2,20.5-6c-8.9-14.2-13.8-31.3-13.8-49.2c0-15.8,1.2-35.6,10.1-52
		c-4.8-1.3-10.3-2-16.8-2c-38.3,0-44.9,24.4-44.9,54.6C118.3,200.6,138.4,225,163.2,225z"/>
	<path class="st1" d="M165.3,238.5c-0.7,0-1.4,0.1-2.1,0.1c-17.2,0-24.6-9.4-24.6-9.4c-52.5,9.5-59.3,24.4-60.2,76.9
		c-0.1,3.4-0.1,3.9-0.1,3.6c0,0.9,0,2.2,0,4.1c0,0,7.2,14.6,42.5,21.5c0.6-34.3,3.5-57.6,16.2-75
		C144.4,250.3,154.4,243.5,165.3,238.5z"/>
</g>
</svg>
