<?xml version="1.0" encoding="utf-8"?>
<!-- Generator: Adobe Illustrator 19.0.0, SVG Export Plug-In . SVG Version: 6.00 Build 0)  -->
<svg version="1.1" id="Layer_1" xmlns="http://www.w3.org/2000/svg" xmlns:xlink="http://www.w3.org/1999/xlink" x="0px" y="0px"
	 width="100px" height="73px" viewBox="0 0 100 73" style="enable-background:new 0 0 100 73;" xml:space="preserve">
<style type="text/css">
	.st0{fill:#e0716b;}
</style>
<path class="st0" d="M24.6,73.1c-4.4,0-8.1-0.8-11.2-2.4c-3.1-1.6-5.6-3.8-7.3-6.8c-1.9-2.4-3.4-5.7-4.3-9.7c-1-4-1.4-8-1.4-12
	c0-8.7,2.2-16.8,6.7-24.2c4.4-7.4,11.4-13.3,20.8-17.6l2.4,4.7c-4.9,2.1-9.2,5.3-13.1,9.7c-3.8,4.4-6.1,8.8-6.8,13.3
	c-0.9,3.8-0.9,7.5,0,11c3.8-4.2,8.9-6.3,15.2-6.3c6.1,0,11.1,1.8,14.9,5.4c3.8,3.6,5.7,8.5,5.7,14.8c0,6.1-2,11-6.1,14.6
	C35.8,71.2,30.7,73.1,24.6,73.1 M78.5,73.1c-4.4,0-8.1-0.8-11.2-2.4c-3.1-1.6-5.6-3.8-7.3-6.8c-1.9-2.4-3.4-5.7-4.3-9.7
	c-1-4-1.4-8-1.4-12c0-8.7,2.2-16.8,6.7-24.2c4.4-7.4,11.4-13.3,20.8-17.6l2.4,4.7c-4.9,2.1-9.2,5.3-13.1,9.7
	c-3.8,4.4-6.1,8.8-6.8,13.3c-0.9,3.8-0.9,7.5,0,11c3.8-4.2,8.9-6.3,15.2-6.3c6.1,0,11.1,1.8,14.9,5.4c3.8,3.6,5.7,8.5,5.7,14.8
	c0,6.1-2,11-6.1,14.6C89.6,71.2,84.6,73.1,78.5,73.1"/>
</svg>
