<?xml version="1.0" encoding="utf-8"?>
<!-- Generator: Adobe Illustrator 19.0.0, SVG Export Plug-In . SVG Version: 6.00 Build 0)  -->
<svg version="1.1" id="Layer_1" xmlns="http://www.w3.org/2000/svg" xmlns:xlink="http://www.w3.org/1999/xlink" x="0px" y="0px"
	 viewBox="0 0 845 247" style="enable-background:new 0 0 845 247;" xml:space="preserve">
<style type="text/css">
	.st0{fill:#fff;}
	.st1{fill:#fff;}
</style>
<path class="st0" d="M337.3,56.6c2.2,0.9,4.4,2.2,6.5,3.8c0.6,0.5,1.1,0.7,1.5,0.7c1.1,0,1.7-1.6,2.1-4.8h1.8
	c-0.2,3.6-0.3,10-0.3,19.2H347c-0.5-3.9-1.1-6.9-1.9-9c-0.8-2.1-2.1-3.9-4-5.4c-1.3-1.3-2.9-2.2-4.6-2.9c-1.7-0.7-3.6-1-5.5-1
	c-5.3,0-9.3,2.6-11.9,7.8c-2.6,5.2-3.9,11.7-3.9,19.5c0,7.7,1.3,14.2,4,19.3c2.7,5.2,6.7,7.8,12,7.8c1.8,0,3.6-0.3,5.4-1
	c1.8-0.7,3.3-1.6,4.5-2.9c2-1.5,3.3-3.3,4.1-5.5c0.8-2.2,1.4-5.5,1.8-9.7h1.8c0,9.6,0.1,16.2,0.3,20h-1.8c-0.2-1.7-0.4-2.9-0.7-3.6
	c-0.3-0.7-0.7-1.1-1.2-1.1c-0.4,0-1,0.2-1.7,0.6c-2.4,1.7-4.6,3-6.8,3.8c-2.2,0.9-4.8,1.3-7.8,1.3c-5.6,0-10.5-1.1-14.7-3.4
	c-4.2-2.3-7.5-5.6-9.8-9.9c-2.3-4.3-3.5-9.4-3.5-15.4c0-5.8,1.2-11,3.6-15.5c2.4-4.5,5.7-8,10-10.5c4.2-2.5,9.1-3.7,14.5-3.7
	C332.4,55.3,335.1,55.7,337.3,56.6"/>
<path class="st0" d="M389.3,100.8l1.4,0.5c-1.1,3.4-2.9,6.4-5.7,8.8c-2.7,2.4-6.1,3.6-10.2,3.6c-5.6,0-10-1.8-13.4-5.3
	c-3.3-3.6-4.9-8.8-4.9-15.8c0-7.1,1.8-12.6,5.3-16.4c3.5-3.8,8.2-5.7,14.1-5.7c9.9,0,14.9,5.9,14.9,17.6h-22.3
	c-0.1,0.8-0.1,2-0.1,3.7c0,3.5,0.5,6.4,1.5,8.7c1,2.3,2.2,4,3.8,5.1c1.6,1.1,3.2,1.6,5,1.6C383.1,107.1,386.6,105,389.3,100.8
	 M370.8,75.6c-1.2,2.4-2,6-2.3,10.9h12.4c0.1-4.2-0.3-7.6-1.2-10.3c-0.9-2.7-2.3-4.1-4.2-4.1C373.6,72.1,372,73.3,370.8,75.6"/>
<path class="st0" d="M433.6,73.5c0.9,1,1.5,2.3,1.9,3.9c0.4,1.6,0.6,3.7,0.6,6.4v21.3c0,2.2,0.4,3.7,1.2,4.5
	c0.8,0.8,2.1,1.2,3.9,1.2v1.7c-5.3-0.2-8.8-0.3-10.5-0.3c-1.6,0-5,0.1-10.3,0.3v-1.7c1.6,0,2.7-0.4,3.3-1.2c0.6-0.8,1-2.3,1-4.5
	V80.5c0-2.2-0.4-3.8-1.1-4.9c-0.7-1.1-2-1.7-3.8-1.7c-2.2,0-4,0.9-5.5,2.7c-1.5,1.8-2.3,3.9-2.3,6.5v22c0,2.2,0.3,3.7,1,4.5
	c0.6,0.8,1.7,1.2,3.3,1.2v1.7c-4.9-0.2-8.1-0.3-9.8-0.3c-1.6,0-5.2,0.1-10.9,0.3v-1.7c1.9,0,3.2-0.4,4-1.2c0.7-0.8,1.1-2.3,1.1-4.5
	v-25c0-2.4-0.4-4.2-1.1-5.3c-0.7-1.1-2.1-1.7-4-1.7v-1.7c1.7,0.2,3.3,0.2,4.9,0.2c4.7,0,8.6-0.4,11.6-1.1v7.1
	c2.4-4.9,6.7-7.4,13-7.4C428.9,70.4,431.8,71.5,433.6,73.5"/>
<path class="st0" d="M460.2,71.5h9.4v1.6h-9.4v32c0,1.6,0.3,2.7,0.8,3.4c0.6,0.7,1.4,1,2.6,1c2.3,0,4.1-1.6,5.4-4.8l1.3,0.7
	c-2,5.4-5.6,8.2-10.9,8.2c-3.5,0-6.1-0.9-7.9-2.7c-1.1-1.1-1.9-2.5-2.3-4.2c-0.4-1.7-0.6-3.9-0.6-6.9V73.1h-6.7v-1.6h6.7V61.1
	c4.4,0,8.2-0.8,11.4-2.5V71.5z"/>
<path class="st0" d="M504.6,72.6c1.2,1.4,1.8,3.1,1.8,5.2c0,2-0.6,3.6-1.7,4.8c-1.1,1.2-2.6,1.9-4.5,1.9c-1.8,0-3.2-0.5-4.3-1.4
	c-1.1-0.9-1.6-2.2-1.6-3.7c0-2.5,1.2-4.6,3.5-6.2c-0.2-0.1-0.5-0.1-1-0.1c-0.5,0-1,0.1-1.3,0.2c-2,0.3-3.7,1.5-5.1,3.6
	c-1.4,2.1-2.1,4.3-2.1,6.5v21c0,2.4,0.6,4.1,1.8,5.1c1.2,1,3.1,1.4,5.7,1.4v1.7c-0.7,0-1.3,0-1.8-0.1c-5.4-0.2-9-0.2-10.8-0.2
	c-1.4,0-4.7,0.1-9.7,0.2c-0.4,0.1-1,0.1-1.6,0.1v-1.7c1.9,0,3.2-0.4,4-1.2c0.7-0.8,1.1-2.3,1.1-4.5v-25c0-2.4-0.4-4.2-1.1-5.3
	c-0.7-1.1-2.1-1.7-4-1.7v-1.7c1.7,0.2,3.3,0.2,4.9,0.2c4.7,0,8.6-0.4,11.6-1.1V78c1-2.3,2.5-4.1,4.4-5.5c1.9-1.4,4-2.1,6.4-2.1
	C501.6,70.4,503.4,71.1,504.6,72.6"/>
<path class="st0" d="M511.9,110.4c-1.7-1.7-2.5-4-2.5-6.9c0-2.4,0.6-4.3,1.9-5.9c1.2-1.6,2.7-2.8,4.5-3.6c1.8-0.8,4-1.7,6.8-2.7
	c2.9-1,5-1.9,6.4-2.7c1.3-0.8,2-1.9,2-3.4v-6.2c0-2.2-0.5-4-1.6-5.2c-1-1.2-2.6-1.9-4.8-1.9c-2.5,0-4.5,0.6-5.8,1.9
	c1.5,0.5,2.6,1.3,3.5,2.4c0.8,1.1,1.2,2.3,1.2,3.7c0,1.8-0.6,3.2-1.8,4.3c-1.2,1.1-2.7,1.6-4.4,1.6c-1.8,0-3.3-0.6-4.3-1.7
	c-1-1.2-1.5-2.6-1.5-4.4c0-1.5,0.4-2.7,1.1-3.8c0.7-1,1.8-2,3.3-2.9c1.4-0.8,3.2-1.5,5.3-2c2.1-0.5,4.4-0.7,6.9-0.7
	c2.6,0,4.8,0.3,6.7,0.8c1.9,0.5,3.5,1.4,4.8,2.7c1.2,1.2,1.9,2.6,2.3,4.3c0.4,1.7,0.6,4,0.6,6.9v21.6c0,1.3,0.1,2.2,0.4,2.7
	c0.2,0.5,0.7,0.8,1.4,0.8c0.8,0,1.7-0.4,2.9-1.3l0.8,1.3c-2.4,2-5.3,2.9-8.7,2.9c-2.9,0-4.9-0.6-6.1-1.7c-1.2-1.2-1.8-2.7-1.8-4.7
	c-2.6,4.3-6.5,6.4-11.7,6.4C516.1,113.1,513.6,112.2,511.9,110.4 M531,104.7V88.5c-0.6,1.1-2,2.2-4,3.5c-2.1,1.3-3.6,2.6-4.7,4
	c-1.1,1.3-1.6,3.2-1.6,5.7c0,2.2,0.4,3.8,1.3,4.8c0.9,1,2.1,1.5,3.6,1.5C527.6,108,529.4,106.9,531,104.7"/>
<path class="st0" d="M566.2,105.1c0,2.2,0.4,3.7,1.1,4.5c0.7,0.8,2.1,1.2,4,1.2v1.7c-5.5-0.2-9-0.3-10.6-0.3
	c-1.8,0-5.4,0.1-10.9,0.3v-1.7c1.8,0,3.2-0.4,3.9-1.2c0.8-0.8,1.1-2.3,1.1-4.5V60c0-2.4-0.4-4.2-1.1-5.3c-0.8-1.1-2.1-1.7-3.9-1.7
	v-1.7c1.7,0.2,3.3,0.2,4.9,0.2c4.6,0,8.5-0.4,11.6-1.1V105.1z"/>
<path class="st0" d="M629.1,56.6c2.2,0.9,4.4,2.2,6.5,3.8c0.6,0.5,1.1,0.7,1.5,0.7c1.1,0,1.7-1.6,2.1-4.8h1.8
	c-0.2,3.6-0.3,10-0.3,19.2h-1.8c-0.5-3.9-1.1-6.9-1.9-9c-0.8-2.1-2.1-3.9-4-5.4c-1.3-1.3-2.9-2.2-4.6-2.9c-1.7-0.7-3.6-1-5.5-1
	c-5.3,0-9.3,2.6-11.9,7.8c-2.6,5.2-3.9,11.7-3.9,19.5c0,7.7,1.3,14.2,4,19.3c2.7,5.2,6.7,7.8,12,7.8c1.8,0,3.6-0.3,5.4-1
	c1.8-0.7,3.3-1.6,4.5-2.9c2-1.5,3.3-3.3,4.1-5.5c0.8-2.2,1.4-5.5,1.8-9.7h1.8c0,9.6,0.1,16.2,0.3,20h-1.8c-0.2-1.7-0.4-2.9-0.7-3.6
	c-0.3-0.7-0.7-1.1-1.2-1.1c-0.4,0-1,0.2-1.7,0.6c-2.4,1.7-4.6,3-6.8,3.8c-2.2,0.9-4.8,1.3-7.8,1.3c-5.6,0-10.5-1.1-14.7-3.4
	c-4.2-2.3-7.5-5.6-9.8-9.9c-2.3-4.3-3.5-9.4-3.5-15.4c0-5.8,1.2-11,3.6-15.5c2.4-4.5,5.7-8,10-10.5c4.2-2.5,9.1-3.7,14.5-3.7
	C624.2,55.3,626.9,55.7,629.1,56.6"/>
<path class="st0" d="M650.3,110.4c-1.7-1.7-2.5-4-2.5-6.9c0-2.4,0.6-4.3,1.9-5.9c1.2-1.6,2.7-2.8,4.5-3.6c1.8-0.8,4-1.7,6.8-2.7
	c2.9-1,5-1.9,6.4-2.7c1.3-0.8,2-1.9,2-3.4v-6.2c0-2.2-0.5-4-1.6-5.2c-1-1.2-2.6-1.9-4.8-1.9c-2.5,0-4.5,0.6-5.8,1.9
	c1.5,0.5,2.6,1.3,3.5,2.4c0.8,1.1,1.2,2.3,1.2,3.7c0,1.8-0.6,3.2-1.8,4.3c-1.2,1.1-2.7,1.6-4.4,1.6c-1.9,0-3.3-0.6-4.3-1.7
	c-1-1.2-1.5-2.6-1.5-4.4c0-1.5,0.4-2.7,1.1-3.8c0.7-1,1.8-2,3.3-2.9c1.4-0.8,3.2-1.5,5.3-2c2.1-0.5,4.4-0.7,6.9-0.7
	c2.6,0,4.8,0.3,6.7,0.8c1.9,0.5,3.5,1.4,4.8,2.7c1.2,1.2,1.9,2.6,2.3,4.3c0.4,1.7,0.6,4,0.6,6.9v21.6c0,1.3,0.1,2.2,0.4,2.7
	c0.2,0.5,0.7,0.8,1.4,0.8c0.8,0,1.7-0.4,2.9-1.3l0.8,1.3c-2.4,2-5.3,2.9-8.7,2.9c-2.9,0-4.9-0.6-6.1-1.7c-1.2-1.2-1.8-2.7-1.8-4.7
	c-2.6,4.3-6.5,6.4-11.7,6.4C654.4,113.1,651.9,112.2,650.3,110.4 M669.3,104.7V88.5c-0.6,1.1-2,2.2-4,3.5c-2.1,1.3-3.6,2.6-4.7,4
	c-1.1,1.3-1.6,3.2-1.6,5.7c0,2.2,0.5,3.8,1.3,4.8c0.9,1,2.1,1.5,3.6,1.5C666,108,667.8,106.9,669.3,104.7"/>
<path class="st0" d="M724.2,72.6c2.1,1.5,3.8,3.7,5,6.7c1.2,3,1.8,6.6,1.8,10.9c0,7.6-1.7,13.4-5,17.4c-3.3,4-7.8,6.1-13.4,6.1
	c-1.6,0-3.1-0.2-4.5-0.6c-1.4-0.4-2.6-1.1-3.6-1.9v7.9c0,2.3,0.6,3.9,1.7,4.8c1.2,0.9,3,1.3,5.4,1.3v1.7l-2.1-0.1
	c-5.9-0.2-9.6-0.2-11.2-0.2c-1.6,0-4.9,0.1-10,0.3v-1.7c1.7,0,3-0.4,3.7-1.1c0.7-0.8,1.1-2.2,1.1-4.2V80.2c0-2.4-0.4-4.2-1.1-5.3
	c-0.8-1.1-2.1-1.7-3.9-1.7v-1.7c1.7,0.2,3.3,0.2,4.9,0.2c4.6,0,8.5-0.4,11.6-1.1v7.3c1.1-2.4,2.7-4.3,4.8-5.6
	c2.1-1.3,4.6-1.9,7.4-1.9C719.6,70.4,722.1,71.2,724.2,72.6 M716.9,106.4c1.5-3.4,2.2-8.3,2.2-14.7c0-6.4-0.6-11-1.8-13.8
	c-1.2-2.7-2.9-4.1-5.1-4.1c-1.8,0-3.4,0.6-4.8,1.8c-1.4,1.2-2.3,2.9-2.8,5.1v28.6c1.3,1.4,2.9,2.1,5,2.1
	C713,111.5,715.4,109.8,716.9,106.4"/>
<path class="st0" d="M752,105.1c0,2.2,0.4,3.7,1.2,4.5c0.8,0.8,2.1,1.2,3.9,1.2v1.7c-5.3-0.2-8.8-0.3-10.5-0.3
	c-1.6,0-5.3,0.1-11,0.3v-1.7c1.9,0,3.2-0.4,4-1.2c0.7-0.8,1.1-2.3,1.1-4.5v-25c0-2.4-0.4-4.2-1.1-5.3c-0.7-1.1-2.1-1.7-4-1.7v-1.7
	c1.7,0.2,3.3,0.2,4.9,0.2c4.7,0,8.6-0.4,11.6-1.1V105.1z M751.1,52.7c1.3,1.1,1.9,2.6,1.9,4.5c0,1.9-0.7,3.4-1.9,4.5
	c-1.3,1.1-3.1,1.6-5.3,1.6c-2.2,0-4-0.5-5.3-1.6c-1.3-1.1-1.9-2.6-1.9-4.5c0-1.9,0.6-3.4,1.9-4.5c1.3-1.1,3.1-1.6,5.3-1.6
	C748.1,51.1,749.8,51.6,751.1,52.7"/>
<path class="st0" d="M776.6,71.5h9.4v1.6h-9.4v32c0,1.6,0.3,2.7,0.8,3.4c0.6,0.7,1.4,1,2.6,1c2.3,0,4.1-1.6,5.4-4.8l1.3,0.7
	c-2,5.4-5.6,8.2-10.9,8.2c-3.5,0-6.1-0.9-7.9-2.7c-1.1-1.1-1.9-2.5-2.3-4.2c-0.4-1.7-0.6-3.9-0.6-6.9V73.1h-6.7v-1.6h6.7V61.1
	c4.4,0,8.2-0.8,11.4-2.5V71.5z"/>
<path class="st0" d="M786.4,110.4c-1.7-1.7-2.5-4-2.5-6.9c0-2.4,0.6-4.3,1.9-5.9c1.2-1.6,2.7-2.8,4.5-3.6c1.8-0.8,4-1.7,6.8-2.7
	c2.9-1,5-1.9,6.4-2.7c1.3-0.8,2-1.9,2-3.4v-6.2c0-2.2-0.5-4-1.6-5.2c-1-1.2-2.6-1.9-4.8-1.9c-2.5,0-4.5,0.6-5.8,1.9
	c1.5,0.5,2.6,1.3,3.5,2.4c0.8,1.1,1.2,2.3,1.2,3.7c0,1.8-0.6,3.2-1.8,4.3c-1.2,1.1-2.7,1.6-4.4,1.6c-1.9,0-3.3-0.6-4.3-1.7
	c-1-1.2-1.5-2.6-1.5-4.4c0-1.5,0.4-2.7,1.1-3.8c0.7-1,1.8-2,3.3-2.9c1.4-0.8,3.2-1.5,5.3-2c2.1-0.5,4.4-0.7,6.9-0.7
	c2.6,0,4.8,0.3,6.7,0.8c1.9,0.5,3.5,1.4,4.8,2.7c1.2,1.2,1.9,2.6,2.3,4.3c0.4,1.7,0.6,4,0.6,6.9v21.6c0,1.3,0.1,2.2,0.4,2.7
	c0.2,0.5,0.7,0.8,1.4,0.8c0.8,0,1.7-0.4,2.9-1.3l0.8,1.3c-2.4,2-5.3,2.9-8.7,2.9c-2.9,0-4.9-0.6-6.1-1.7c-1.2-1.2-1.8-2.7-1.8-4.7
	c-2.6,4.3-6.5,6.4-11.7,6.4C790.6,113.1,788.1,112.2,786.4,110.4 M805.5,104.7V88.5c-0.6,1.1-2,2.2-4,3.5c-2.1,1.3-3.6,2.6-4.7,4
	c-1.1,1.3-1.6,3.2-1.6,5.7c0,2.2,0.5,3.8,1.3,4.8c0.9,1,2.1,1.5,3.6,1.5C802.1,108,803.9,106.9,805.5,104.7"/>
<path class="st0" d="M840.7,105.1c0,2.2,0.4,3.7,1.1,4.5c0.7,0.8,2.1,1.2,4,1.2v1.7c-5.5-0.2-9-0.3-10.6-0.3
	c-1.8,0-5.4,0.1-10.9,0.3v-1.7c1.8,0,3.2-0.4,3.9-1.2c0.8-0.8,1.1-2.3,1.1-4.5V60c0-2.4-0.4-4.2-1.1-5.3c-0.8-1.1-2.1-1.7-3.9-1.7
	v-1.7c1.7,0.2,3.3,0.2,4.9,0.2c4.6,0,8.5-0.4,11.6-1.1V105.1z"/>
<path class="st0" d="M421.6,178.2c0,1.3-0.3,2.4-0.8,3.4c-0.5,1-1.2,1.9-2.1,2.7c-0.9,0.7-1.9,1.3-3,1.7c-1.2,0.4-2.4,0.6-3.7,0.6
	h-15.5v-32.7h16.2c1.1,0,2.2,0.2,3.1,0.7c0.9,0.5,1.7,1.1,2.3,1.9c0.6,0.8,1.1,1.7,1.5,2.7c0.4,1,0.5,2,0.5,3c0,1.6-0.4,3.1-1.2,4.5
	c-0.8,1.4-2,2.4-3.5,3.1c1.9,0.5,3.3,1.6,4.4,3.1C421,174.4,421.6,176.1,421.6,178.2 M400.7,157.5v10.9h10.4c0.7,0,1.4-0.1,2-0.4
	c0.6-0.3,1.1-0.7,1.6-1.2c0.4-0.5,0.8-1.1,1.1-1.7c0.3-0.7,0.4-1.4,0.4-2.1c0-0.8-0.1-1.5-0.4-2.2c-0.2-0.7-0.6-1.3-1-1.7
	c-0.4-0.5-0.9-0.9-1.5-1.2c-0.6-0.3-1.2-0.4-1.9-0.4H400.7z M417.4,177.4c0-0.7-0.1-1.4-0.4-2.1c-0.3-0.7-0.6-1.3-1.1-1.8
	c-0.4-0.5-1-0.9-1.6-1.2c-0.6-0.3-1.3-0.5-2-0.5h-11.7V183H412c0.8,0,1.5-0.2,2.1-0.5c0.6-0.3,1.2-0.7,1.7-1.2
	c0.5-0.5,0.9-1.1,1.2-1.8C417.3,178.9,417.4,178.2,417.4,177.4"/>
<path class="st0" d="M436,187c-2.5,0-4.4-0.8-5.7-2.5c-1.3-1.7-1.9-4.2-1.9-7.5v-14.4h4.1v13.6c0,4.9,1.7,7.4,5.1,7.4
	c1.7,0,3.2-0.5,4.7-1.6c1.5-1.1,2.5-2.5,3.2-4.4v-15h4v19c0,1,0.4,1.4,1.3,1.5v3.5c-0.5,0.1-0.8,0.1-1.1,0.1s-0.5,0-0.8,0
	c-0.8,0-1.5-0.2-2-0.7c-0.5-0.5-0.8-1.1-0.8-1.8l-0.1-2.8c-1.1,1.8-2.5,3.2-4.2,4.2C440,186.5,438.1,187,436,187"/>
<path class="st0" d="M458.1,153h4.1v5.1h-4.1V153z M458.1,162.6h4.1v24h-4.1V162.6z"/>
<path class="st0" d="M470.6,153h4.1v27.4c0,0.9,0.2,1.6,0.7,2.1c0.5,0.5,1.1,0.8,2,0.8c0.3,0,0.7-0.1,1.2-0.2
	c0.5-0.1,0.9-0.2,1.3-0.4l0.6,3.3c-0.7,0.3-1.5,0.5-2.4,0.7c-0.9,0.2-1.7,0.3-2.4,0.3c-1.6,0-2.8-0.4-3.7-1.3
	c-0.9-0.9-1.4-2.1-1.4-3.7V153z"/>
<path class="st0" d="M495.3,187c-1.7,0-3.2-0.3-4.6-1c-1.4-0.7-2.6-1.6-3.6-2.7c-1-1.1-1.8-2.5-2.4-4c-0.6-1.5-0.8-3.1-0.8-4.7
	c0-1.7,0.3-3.3,0.8-4.8c0.5-1.5,1.3-2.8,2.3-4c1-1.1,2.1-2,3.5-2.7c1.3-0.7,2.8-1,4.4-1c1.9,0,3.7,0.5,5.2,1.5
	c1.5,1,2.7,2.2,3.6,3.7V153h4v28.6c0,1,0.4,1.4,1.3,1.5v3.5c-0.4,0.1-0.8,0.1-1,0.1c-0.3,0-0.5,0.1-0.8,0.1c-0.8,0-1.5-0.3-2.1-0.8
	c-0.6-0.5-0.9-1.2-0.9-1.9v-2c-1,1.6-2.2,2.8-3.8,3.7C498.7,186.6,497.1,187,495.3,187 M496.3,183.5c0.7,0,1.5-0.1,2.3-0.4
	c0.8-0.3,1.5-0.7,2.2-1.1c0.7-0.5,1.3-1.1,1.8-1.7c0.5-0.7,0.8-1.4,1-2.1v-6.9c-0.3-0.8-0.7-1.5-1.2-2.2c-0.5-0.7-1.2-1.3-1.9-1.8
	c-0.7-0.5-1.4-0.9-2.2-1.2c-0.8-0.3-1.6-0.4-2.3-0.4c-1.2,0-2.3,0.3-3.2,0.8c-1,0.5-1.8,1.2-2.5,2c-0.7,0.8-1.2,1.8-1.6,2.9
	c-0.4,1.1-0.5,2.2-0.5,3.3c0,1.2,0.2,2.3,0.6,3.4c0.4,1.1,1,2,1.7,2.8c0.7,0.8,1.6,1.4,2.6,1.9C494,183.3,495.1,183.5,496.3,183.5"
	/>
<path class="st0" d="M516.2,153h4.1v5.1h-4.1V153z M516.2,162.6h4.1v24h-4.1V162.6z"/>
<path class="st0" d="M549.5,186.6h-4.1v-13.4c0-2.6-0.4-4.4-1.2-5.6c-0.8-1.2-2-1.7-3.6-1.7c-0.8,0-1.7,0.2-2.5,0.5
	c-0.8,0.3-1.6,0.8-2.3,1.3c-0.7,0.5-1.4,1.2-1.9,2c-0.6,0.8-1,1.6-1.2,2.5v14.5h-4.1v-24h3.7v5.2c1-1.7,2.3-3,4.1-4.1
	c1.8-1,3.8-1.5,5.9-1.5c1.4,0,2.5,0.2,3.5,0.8c0.9,0.5,1.7,1.2,2.2,2.1c0.6,0.9,0.9,2,1.2,3.2c0.2,1.2,0.3,2.6,0.3,4V186.6z"/>
<path class="st0" d="M567.2,186.8c-1.6,0-3.1-0.3-4.5-1c-1.4-0.7-2.5-1.6-3.5-2.7c-1-1.1-1.7-2.4-2.3-3.9c-0.5-1.5-0.8-3-0.8-4.6
	c0-1.7,0.3-3.3,0.8-4.8c0.5-1.5,1.3-2.8,2.3-4c1-1.1,2.2-2,3.5-2.7c1.4-0.7,2.9-1,4.5-1c2,0,3.8,0.5,5.2,1.5c1.5,1,2.7,2.2,3.7,3.7
	v-4.8h3.6v23.7c0,1.7-0.3,3.2-1,4.5c-0.6,1.3-1.5,2.4-2.6,3.3c-1.1,0.9-2.4,1.6-3.9,2c-1.5,0.5-3.1,0.7-4.8,0.7
	c-2.7,0-4.9-0.5-6.6-1.4c-1.7-0.9-3.1-2.2-4.3-3.9l2.3-2.1c1,1.4,2.2,2.5,3.7,3.2c1.5,0.7,3.1,1.1,4.9,1.1c1.1,0,2.2-0.1,3.2-0.5
	c1-0.3,1.9-0.8,2.6-1.4c0.7-0.6,1.3-1.4,1.8-2.3c0.4-0.9,0.7-2,0.7-3.3v-4.2c-0.5,0.7-1,1.4-1.6,2c-0.6,0.6-1.3,1.1-2.1,1.5
	c-0.7,0.4-1.5,0.7-2.3,0.9C568.9,186.7,568,186.8,567.2,186.8 M568.4,183.5c0.9,0,1.7-0.1,2.5-0.5c0.8-0.3,1.5-0.7,2.2-1.2
	c0.7-0.5,1.2-1.1,1.7-1.7c0.5-0.6,0.8-1.3,0.9-2v-6.9c-0.3-0.8-0.8-1.6-1.3-2.3c-0.5-0.7-1.1-1.3-1.8-1.8c-0.7-0.5-1.4-0.9-2.2-1.2
	c-0.8-0.3-1.6-0.4-2.4-0.4c-1.2,0-2.3,0.3-3.3,0.8c-1,0.5-1.8,1.2-2.5,2.1c-0.7,0.9-1.2,1.8-1.6,2.9c-0.4,1.1-0.6,2.2-0.6,3.3
	c0,1.2,0.2,2.3,0.6,3.4c0.4,1.1,1,2,1.8,2.8c0.7,0.8,1.6,1.4,2.6,1.9C566.2,183.3,567.3,183.5,568.4,183.5"/>
<polygon class="st0" points="622.2,157.6 610.9,157.6 610.9,186.6 606.8,186.6 606.8,157.6 595.5,157.6 595.5,153.9 622.2,153.9 "/>
<path class="st0" d="M628.7,186.6v-32.7h14c1.4,0,2.8,0.3,4,0.9c1.2,0.6,2.3,1.4,3.1,2.4c0.9,1,1.6,2.1,2,3.4
	c0.5,1.2,0.7,2.5,0.7,3.8c0,1.1-0.2,2.2-0.5,3.3c-0.3,1.1-0.8,2-1.4,2.9c-0.6,0.9-1.3,1.6-2.2,2.2c-0.8,0.6-1.8,1.1-2.8,1.3
	l7.9,12.5h-4.7l-7.5-11.7h-8.6v11.7H628.7z M632.8,171.2h9.9c0.9,0,1.6-0.2,2.3-0.6c0.7-0.4,1.3-0.9,1.8-1.5
	c0.5-0.6,0.9-1.4,1.1-2.2c0.3-0.8,0.4-1.7,0.4-2.6c0-0.9-0.2-1.8-0.5-2.6c-0.3-0.8-0.7-1.5-1.3-2.2s-1.2-1.1-1.9-1.5
	c-0.7-0.4-1.5-0.5-2.3-0.5h-9.6V171.2z"/>
<path class="st0" d="M674.1,183.1c1.9,0,3.5-0.4,4.7-1.1c1.3-0.7,2.3-1.7,3-2.9c0.8-1.2,1.3-2.5,1.6-4.1c0.3-1.5,0.5-3.1,0.5-4.6
	v-16.5h4.1v16.5c0,2.2-0.3,4.3-0.8,6.3c-0.5,2-1.3,3.7-2.4,5.2c-1.1,1.5-2.5,2.7-4.3,3.6c-1.8,0.9-3.9,1.3-6.4,1.3
	c-2.6,0-4.8-0.5-6.6-1.4c-1.8-0.9-3.2-2.1-4.3-3.7c-1.1-1.5-1.9-3.3-2.3-5.2c-0.5-2-0.7-4-0.7-6.1v-16.5h4.1v16.5
	c0,1.6,0.2,3.2,0.5,4.7c0.3,1.5,0.9,2.9,1.6,4c0.7,1.2,1.8,2.1,3,2.8C670.7,182.7,672.3,183.1,674.1,183.1"/>
<path class="st0" d="M716.4,160.8c-0.4-0.4-0.9-0.8-1.5-1.2c-0.6-0.4-1.3-0.8-2.1-1.1c-0.8-0.3-1.6-0.6-2.5-0.8
	c-0.9-0.2-1.8-0.3-2.8-0.3c-2.5,0-4.4,0.5-5.6,1.4c-1.2,1-1.8,2.3-1.8,3.9c0,0.9,0.2,1.6,0.5,2.2c0.3,0.6,0.9,1.1,1.6,1.5
	c0.7,0.4,1.6,0.8,2.7,1.1c1.1,0.3,2.4,0.6,3.8,1c1.7,0.4,3.2,0.8,4.6,1.3c1.4,0.5,2.5,1.1,3.5,1.8c1,0.7,1.7,1.6,2.2,2.6
	c0.5,1,0.8,2.3,0.8,3.7c0,1.6-0.3,2.9-0.9,4.1c-0.6,1.2-1.5,2.1-2.5,2.9c-1.1,0.8-2.3,1.3-3.8,1.7c-1.4,0.4-3,0.5-4.7,0.5
	c-2.5,0-4.9-0.4-7.2-1.2c-2.3-0.8-4.3-1.9-6.1-3.4l2-3.5c0.5,0.5,1.1,1,1.9,1.6c0.8,0.5,1.7,1,2.7,1.4c1,0.4,2.1,0.7,3.2,1
	c1.1,0.3,2.4,0.4,3.6,0.4c2.3,0,4.1-0.4,5.4-1.2c1.3-0.8,1.9-2.1,1.9-3.7c0-0.9-0.2-1.7-0.6-2.3c-0.4-0.6-1-1.2-1.8-1.6
	c-0.8-0.5-1.8-0.9-3-1.2c-1.2-0.4-2.5-0.7-4-1.1c-1.7-0.4-3.1-0.8-4.4-1.3c-1.3-0.5-2.3-1-3.2-1.7c-0.8-0.6-1.5-1.4-1.9-2.3
	c-0.4-0.9-0.6-2-0.6-3.3c0-1.6,0.3-2.9,0.9-4.1c0.6-1.2,1.4-2.2,2.4-3c1-0.8,2.3-1.5,3.7-1.9c1.4-0.4,3-0.6,4.7-0.6
	c2.2,0,4.2,0.3,6,1c1.8,0.7,3.4,1.6,4.7,2.7L716.4,160.8z"/>
<polygon class="st0" points="750.4,157.6 739.1,157.6 739.1,186.6 735,186.6 735,157.6 723.7,157.6 723.7,153.9 750.4,153.9 "/>
<path class="st1" d="M202.4,37C185.8,13.9,159,0.1,130.6,0.1c-48.7,0-88.3,39.6-88.3,88.3c0,48.7,39.6,88.3,88.3,88.3
	c29.3,0,56.6-14.5,73-38.7c-6.5-5.5-15-8.7-24.2-8.7c-7,0-13.5,1.8-19,5.1c-8.8,5.7-19,8.9-29.8,8.9c-30.2,0-54.8-24.6-54.8-54.8
	c0-30.2,24.6-54.8,54.8-54.8c10,0,19.6,2.8,28,7.8c5.6,3.3,11.9,4.9,18.9,4.9c7,0,13.6-1.9,19.2-5.2l5.4-3.8L202.4,37z"/>
<path class="st1" d="M241.7,240.3H34.2h-30c-4.4,0-4.4,6.8,0,6.8h207.5h30C246.1,247.2,246.1,240.3,241.7,240.3"/>
<path class="st1" d="M204.4,219H62.2H41.5c-4.4,0-4.4,6.8,0,6.8h142.2h20.7C208.8,225.9,208.8,219,204.4,219"/>
<path class="st1" d="M181.3,197.7H64.6c-4.4,0-4.4,6.8,0,6.8h116.8C185.7,204.6,185.7,197.7,181.3,197.7"/>
<g id="XMLID_1_">
</g>
<g id="XMLID_2_">
</g>
<g id="XMLID_3_">
</g>
<g id="XMLID_4_">
</g>
<g id="XMLID_5_">
</g>
<g id="XMLID_6_">
</g>
</svg>
