<?xml version="1.0" encoding="utf-8"?>
<!-- Generator: Adobe Illustrator 19.0.0, SVG Export Plug-In . SVG Version: 6.00 Build 0)  -->
<svg version="1.1" id="Layer_1" xmlns="http://www.w3.org/2000/svg" xmlns:xlink="http://www.w3.org/1999/xlink" x="0px" y="0px"
	 viewBox="0 0 646 476" style="enable-background:new 0 0 646 476;" xml:space="preserve">
<style type="text/css">
	.st0{fill:#fff;}
	.st1{fill:#fff;}
</style>
<path class="st0" d="M42.8,310.1c2.6,1.1,5.2,2.6,7.7,4.5c0.7,0.6,1.3,0.8,1.8,0.8c1.3,0,2.1-1.9,2.4-5.6h2.2
	c-0.3,4.3-0.4,11.8-0.4,22.7h-2.2c-0.6-4.6-1.3-8.2-2.3-10.6c-0.9-2.4-2.5-4.6-4.8-6.4c-1.6-1.5-3.4-2.6-5.5-3.4
	c-2.1-0.8-4.2-1.2-6.5-1.2c-6.3,0-11,3.1-14.1,9.3c-3.1,6.2-4.6,13.9-4.6,23.1c0,9.1,1.6,16.8,4.8,22.9c3.2,6.1,8,9.2,14.3,9.2
	c2.1,0,4.2-0.4,6.3-1.2c2.1-0.8,3.9-1.9,5.3-3.4c2.3-1.8,3.9-3.9,4.8-6.6c0.9-2.6,1.6-6.5,2.1-11.6h2.2c0,11.3,0.1,19.2,0.4,23.7
	h-2.2c-0.2-2-0.5-3.4-0.8-4.3c-0.3-0.8-0.8-1.3-1.5-1.3c-0.5,0-1.2,0.3-2,0.8c-2.8,2-5.5,3.5-8.1,4.6c-2.6,1-5.7,1.5-9.3,1.5
	c-6.6,0-12.4-1.3-17.4-4c-5-2.7-8.9-6.6-11.6-11.7C1.3,356.9,0,350.8,0,343.7c0-6.9,1.4-13,4.2-18.3C7,320,11,315.9,16,312.9
	c5-2.9,10.8-4.4,17.2-4.4C37,308.5,40.2,309.1,42.8,310.1"/>
<path class="st0" d="M104.5,362.5l1.7,0.6c-1.3,4.1-3.5,7.5-6.7,10.4c-3.2,2.9-7.2,4.3-12.1,4.3c-6.6,0-11.9-2.1-15.8-6.3
	c-3.9-4.2-5.9-10.5-5.9-18.8c0-8.5,2.1-14.9,6.3-19.4c4.2-4.5,9.8-6.7,16.7-6.7c11.8,0,17.7,7,17.7,20.9H80
	c-0.1,0.9-0.1,2.4-0.1,4.4c0,4.1,0.6,7.6,1.7,10.3c1.2,2.8,2.7,4.8,4.5,6c1.9,1.3,3.8,1.9,6,1.9C97.2,370,101.4,367.5,104.5,362.5
	 M82.5,332.6c-1.5,2.8-2.4,7.1-2.8,12.9h14.8c0.1-4.9-0.4-9-1.5-12.3c-1.1-3.2-2.7-4.8-4.9-4.8C85.9,328.5,84,329.9,82.5,332.6"/>
<path class="st0" d="M157.1,330.2c1.1,1.2,1.8,2.7,2.3,4.6c0.4,1.9,0.7,4.4,0.7,7.6v25.3c0,2.6,0.5,4.3,1.4,5.3
	c0.9,1,2.5,1.5,4.7,1.5v2c-6.3-0.2-10.4-0.4-12.4-0.4c-1.9,0-6,0.1-12.2,0.4v-2c1.9,0,3.2-0.5,3.9-1.5c0.8-1,1.1-2.7,1.1-5.3v-29.2
	c0-2.6-0.4-4.5-1.3-5.8c-0.8-1.3-2.4-2-4.6-2c-2.6,0-4.8,1-6.6,3.1c-1.8,2.1-2.7,4.7-2.7,7.8v26.1c0,2.6,0.4,4.3,1.1,5.3
	c0.8,1,2.1,1.5,4,1.5v2c-5.8-0.2-9.7-0.4-11.7-0.4c-1.9,0-6.2,0.1-13,0.4v-2c2.3,0,3.8-0.5,4.7-1.5c0.9-1,1.3-2.7,1.3-5.3V338
	c0-2.9-0.4-5-1.3-6.3c-0.9-1.3-2.4-2-4.7-2v-2c2,0.2,4,0.3,5.8,0.3c5.6,0,10.2-0.4,13.7-1.3v8.5c2.8-5.8,8-8.7,15.4-8.7
	C151.5,326.5,155,327.7,157.1,330.2"/>
<path class="st0" d="M188.6,327.8h11.1v1.9h-11.1v38c0,1.9,0.3,3.2,1,4c0.7,0.8,1.7,1.2,3.1,1.2c2.7,0,4.8-1.9,6.4-5.6l1.6,0.8
	c-2.4,6.5-6.7,9.7-12.9,9.7c-4.1,0-7.3-1.1-9.4-3.2c-1.3-1.3-2.2-3-2.7-4.9c-0.5-2-0.7-4.7-0.7-8.1v-31.8h-7.9v-1.9h7.9v-12.4
	c5.2,0,9.7-1,13.5-3V327.8z"/>
<path class="st0" d="M241.3,329c1.4,1.7,2.2,3.7,2.2,6.1c0,2.3-0.7,4.2-2,5.7c-1.4,1.5-3.1,2.2-5.3,2.2c-2.1,0-3.8-0.6-5.1-1.6
	c-1.3-1.1-1.9-2.6-1.9-4.4c0-3,1.4-5.5,4.1-7.3c-0.2-0.1-0.6-0.1-1.1-0.1c-0.6,0-1.1,0.1-1.5,0.2c-2.4,0.4-4.4,1.8-6.1,4.3
	c-1.7,2.5-2.5,5.1-2.5,7.7v24.9c0,2.9,0.7,4.9,2.1,6c1.4,1.1,3.7,1.7,6.7,1.7v2c-0.9,0-1.6,0-2.2-0.1c-6.4-0.2-10.7-0.3-12.8-0.3
	c-1.7,0-5.5,0.1-11.6,0.3c-0.5,0.1-1.1,0.1-1.9,0.1v-2c2.3,0,3.8-0.5,4.7-1.5c0.9-1,1.3-2.7,1.3-5.3V338c0-2.9-0.4-5-1.3-6.3
	c-0.9-1.3-2.4-2-4.7-2v-2c2,0.2,4,0.3,5.8,0.3c5.6,0,10.2-0.4,13.7-1.3v8.7c1.2-2.7,2.9-4.9,5.2-6.5c2.3-1.7,4.8-2.5,7.6-2.5
	C237.8,326.5,239.9,327.3,241.3,329"/>
<path class="st0" d="M249.9,373.9c-2-2.1-3-4.8-3-8.2c0-2.8,0.7-5.2,2.2-7c1.5-1.8,3.3-3.3,5.4-4.3c2.1-1,4.8-2.1,8-3.2
	c3.4-1.2,6-2.3,7.6-3.2c1.6-1,2.4-2.3,2.4-4v-7.3c0-2.6-0.6-4.7-1.8-6.2c-1.2-1.5-3.1-2.2-5.7-2.2c-3,0-5.3,0.8-6.9,2.3
	c1.8,0.6,3.1,1.6,4.1,2.8c1,1.3,1.5,2.7,1.5,4.4c0,2.1-0.7,3.8-2.2,5.1c-1.4,1.3-3.2,1.9-5.3,1.9c-2.2,0-3.9-0.7-5.1-2.1
	c-1.2-1.4-1.8-3.1-1.8-5.2c0-1.8,0.4-3.2,1.3-4.5c0.8-1.2,2.1-2.4,3.9-3.4c1.7-1,3.8-1.8,6.3-2.3c2.5-0.6,5.2-0.8,8.1-0.8
	c3.1,0,5.7,0.3,8,0.9c2.3,0.6,4.1,1.7,5.6,3.2c1.4,1.4,2.3,3.1,2.8,5.1c0.5,2,0.7,4.7,0.7,8.2v25.6c0,1.5,0.1,2.6,0.4,3.2
	c0.3,0.6,0.8,0.9,1.6,0.9c0.9,0,2.1-0.5,3.4-1.6l0.9,1.6c-2.8,2.3-6.3,3.5-10.3,3.5c-3.4,0-5.9-0.7-7.2-2.1
	c-1.4-1.4-2.1-3.2-2.2-5.5c-3.1,5.1-7.7,7.6-13.8,7.6C254.9,377,251.9,376,249.9,373.9 M272.5,367.2v-19.3c-0.8,1.3-2.4,2.6-4.8,4.1
	c-2.4,1.6-4.3,3.1-5.6,4.7c-1.3,1.6-1.9,3.8-1.9,6.8c0,2.6,0.5,4.5,1.6,5.7c1.1,1.2,2.5,1.8,4.2,1.8
	C268.6,371,270.7,369.7,272.5,367.2"/>
<path class="st0" d="M314.3,367.6c0,2.6,0.4,4.3,1.3,5.3c0.9,1,2.4,1.5,4.7,1.5v2c-6.5-0.2-10.7-0.4-12.6-0.4c-2.1,0-6.5,0.1-13,0.4
	v-2c2.2,0,3.7-0.5,4.7-1.5c0.9-1,1.4-2.7,1.4-5.3v-53.6c0-2.9-0.5-5-1.4-6.3c-0.9-1.3-2.5-2-4.7-2v-2c2,0.2,3.9,0.3,5.8,0.3
	c5.5,0,10-0.4,13.7-1.3V367.6z"/>
<path class="st0" d="M389,310.1c2.6,1.1,5.2,2.6,7.7,4.5c0.7,0.6,1.3,0.8,1.8,0.8c1.3,0,2.1-1.9,2.4-5.6h2.2
	c-0.3,4.3-0.4,11.8-0.4,22.7h-2.2c-0.6-4.6-1.3-8.2-2.3-10.6c-0.9-2.4-2.5-4.6-4.8-6.4c-1.6-1.5-3.4-2.6-5.5-3.4
	c-2.1-0.8-4.2-1.2-6.5-1.2c-6.3,0-11,3.1-14.1,9.3c-3.1,6.2-4.6,13.9-4.6,23.1c0,9.1,1.6,16.8,4.8,22.9c3.2,6.1,8,9.2,14.3,9.2
	c2.1,0,4.2-0.4,6.4-1.2c2.1-0.8,3.9-1.9,5.3-3.4c2.3-1.8,3.9-3.9,4.8-6.6c0.9-2.6,1.6-6.5,2.1-11.6h2.2c0,11.3,0.1,19.2,0.4,23.7
	h-2.2c-0.2-2-0.5-3.4-0.8-4.3c-0.3-0.8-0.8-1.3-1.5-1.3c-0.5,0-1.2,0.3-2,0.8c-2.8,2-5.5,3.5-8.1,4.6c-2.6,1-5.7,1.5-9.3,1.5
	c-6.6,0-12.4-1.3-17.4-4c-5-2.7-8.9-6.6-11.6-11.7c-2.8-5.1-4.1-11.2-4.1-18.3c0-6.9,1.4-13,4.2-18.3c2.8-5.3,6.8-9.5,11.8-12.4
	c5-2.9,10.8-4.4,17.2-4.4C383.1,308.5,386.3,309.1,389,310.1"/>
<path class="st0" d="M414,373.9c-2-2.1-3-4.8-3-8.2c0-2.8,0.7-5.2,2.2-7c1.5-1.8,3.3-3.3,5.4-4.3c2.1-1,4.8-2.1,8-3.2
	c3.4-1.2,6-2.3,7.6-3.2c1.6-1,2.4-2.3,2.4-4v-7.3c0-2.6-0.6-4.7-1.8-6.2c-1.2-1.5-3.1-2.2-5.7-2.2c-3,0-5.3,0.8-6.9,2.3
	c1.8,0.6,3.1,1.6,4.1,2.8c1,1.3,1.5,2.7,1.5,4.4c0,2.1-0.7,3.8-2.2,5.1c-1.4,1.3-3.2,1.9-5.3,1.9c-2.2,0-3.9-0.7-5.1-2.1
	c-1.2-1.4-1.8-3.1-1.8-5.2c0-1.8,0.4-3.2,1.3-4.5c0.8-1.2,2.1-2.4,3.9-3.4c1.7-1,3.8-1.8,6.3-2.3c2.5-0.6,5.2-0.8,8.1-0.8
	c3.1,0,5.7,0.3,8,0.9c2.3,0.6,4.1,1.7,5.6,3.2c1.4,1.4,2.3,3.1,2.8,5.1c0.5,2,0.7,4.7,0.7,8.2v25.6c0,1.5,0.1,2.6,0.4,3.2
	c0.3,0.6,0.8,0.9,1.6,0.9c0.9,0,2.1-0.5,3.4-1.6l0.9,1.6c-2.8,2.3-6.3,3.5-10.3,3.5c-3.4,0-5.9-0.7-7.2-2.1
	c-1.4-1.4-2.1-3.2-2.2-5.5c-3.1,5.1-7.7,7.6-13.8,7.6C419,377,416,376,414,373.9 M436.6,367.2v-19.3c-0.8,1.3-2.4,2.6-4.8,4.1
	c-2.4,1.6-4.3,3.1-5.6,4.7c-1.3,1.6-1.9,3.8-1.9,6.8c0,2.6,0.5,4.5,1.6,5.7c1.1,1.2,2.5,1.8,4.2,1.8
	C432.7,371,434.8,369.7,436.6,367.2"/>
<path class="st0" d="M501.7,329.1c2.5,1.8,4.5,4.4,6,7.9c1.4,3.5,2.2,7.8,2.2,12.9c0,9-2,15.8-5.9,20.6c-3.9,4.8-9.2,7.2-15.9,7.2
	c-1.9,0-3.7-0.2-5.3-0.8c-1.7-0.5-3.1-1.3-4.3-2.3v9.4c0,2.8,0.7,4.7,2.1,5.7c1.4,1.1,3.5,1.6,6.4,1.6v2l-2.5-0.1
	c-7-0.2-11.4-0.3-13.2-0.3c-1.9,0-5.8,0.1-11.8,0.4v-2c2.1,0,3.5-0.5,4.4-1.4c0.8-0.9,1.3-2.6,1.3-5v-47c0-2.9-0.5-5-1.4-6.3
	c-0.9-1.3-2.5-2-4.7-2v-2c2,0.2,3.9,0.3,5.8,0.3c5.5,0,10-0.4,13.7-1.3v8.6c1.3-2.9,3.2-5.1,5.7-6.6c2.5-1.5,5.4-2.3,8.8-2.3
	C496.3,326.5,499.2,327.4,501.7,329.1 M493,369.2c1.8-4,2.6-9.8,2.6-17.4c0-7.6-0.7-13.1-2.1-16.4c-1.4-3.3-3.4-4.9-6.1-4.9
	c-2.1,0-4,0.7-5.7,2.2c-1.7,1.4-2.8,3.5-3.3,6v33.9c1.5,1.7,3.5,2.5,5.9,2.5C488.4,375.2,491.3,373.2,493,369.2"/>
<path class="st0" d="M534.7,367.6c0,2.6,0.5,4.3,1.4,5.3c0.9,1,2.5,1.5,4.7,1.5v2c-6.3-0.2-10.4-0.4-12.5-0.4
	c-1.9,0-6.3,0.1-13.1,0.4v-2c2.3,0,3.8-0.5,4.7-1.5c0.9-1,1.3-2.7,1.3-5.3V338c0-2.9-0.4-5-1.3-6.3c-0.9-1.3-2.4-2-4.7-2v-2
	c2,0.2,4,0.3,5.8,0.3c5.6,0,10.2-0.4,13.7-1.3V367.6z M533.7,305.5c1.5,1.3,2.3,3.1,2.3,5.3c0,2.3-0.8,4-2.3,5.3
	c-1.5,1.3-3.6,1.9-6.3,1.9c-2.6,0-4.7-0.6-6.3-1.9c-1.5-1.3-2.3-3.1-2.3-5.3c0-2.3,0.8-4,2.3-5.3c1.5-1.3,3.6-1.9,6.3-1.9
	C530,303.6,532.1,304.2,533.7,305.5"/>
<path class="st0" d="M563.9,327.8H575v1.9h-11.1v38c0,1.9,0.3,3.2,1,4c0.7,0.8,1.7,1.2,3.1,1.2c2.7,0,4.8-1.9,6.4-5.6l1.6,0.8
	c-2.4,6.5-6.7,9.7-12.9,9.7c-4.1,0-7.3-1.1-9.4-3.2c-1.3-1.3-2.2-3-2.7-4.9c-0.5-2-0.7-4.7-0.7-8.1v-31.8h-7.9v-1.9h7.9v-12.4
	c5.2,0,9.7-1,13.5-3V327.8z"/>
<path class="st0" d="M575.5,373.9c-2-2.1-3-4.8-3-8.2c0-2.8,0.7-5.2,2.2-7c1.5-1.8,3.3-3.3,5.4-4.3c2.1-1,4.8-2.1,8-3.2
	c3.4-1.2,6-2.3,7.6-3.2c1.6-1,2.4-2.3,2.4-4v-7.3c0-2.6-0.6-4.7-1.8-6.2c-1.2-1.5-3.1-2.2-5.7-2.2c-3,0-5.3,0.8-6.9,2.3
	c1.8,0.6,3.1,1.6,4.1,2.8c1,1.3,1.5,2.7,1.5,4.4c0,2.1-0.7,3.8-2.2,5.1c-1.4,1.3-3.2,1.9-5.3,1.9c-2.2,0-3.9-0.7-5.1-2.1
	c-1.2-1.4-1.8-3.1-1.8-5.2c0-1.8,0.4-3.2,1.3-4.5c0.8-1.2,2.1-2.4,3.9-3.4c1.7-1,3.8-1.8,6.3-2.3c2.5-0.6,5.2-0.8,8.1-0.8
	c3.1,0,5.7,0.3,8,0.9c2.3,0.6,4.1,1.7,5.6,3.2c1.4,1.4,2.3,3.1,2.8,5.1c0.5,2,0.7,4.7,0.7,8.2v25.6c0,1.5,0.1,2.6,0.4,3.2
	c0.3,0.6,0.8,0.9,1.6,0.9c0.9,0,2.1-0.5,3.4-1.6l0.9,1.6c-2.8,2.3-6.3,3.5-10.3,3.5c-3.4,0-5.9-0.7-7.2-2.1
	c-1.4-1.4-2.1-3.2-2.2-5.5c-3.1,5.1-7.7,7.6-13.8,7.6C580.4,377,577.5,376,575.5,373.9 M598.1,367.2v-19.3c-0.8,1.3-2.4,2.6-4.8,4.1
	c-2.4,1.6-4.3,3.1-5.5,4.7c-1.3,1.6-1.9,3.8-1.9,6.8c0,2.6,0.5,4.5,1.6,5.7c1.1,1.2,2.5,1.8,4.2,1.8
	C594.1,371,596.3,369.7,598.1,367.2"/>
<path class="st0" d="M639.9,367.6c0,2.6,0.4,4.3,1.3,5.3c0.9,1,2.4,1.5,4.7,1.5v2c-6.5-0.2-10.7-0.4-12.6-0.4c-2.1,0-6.5,0.1-13,0.4
	v-2c2.2,0,3.7-0.5,4.7-1.5c0.9-1,1.4-2.7,1.4-5.3v-53.6c0-2.9-0.5-5-1.4-6.3c-0.9-1.3-2.5-2-4.7-2v-2c2,0.2,3.9,0.3,5.8,0.3
	c5.5,0,10-0.4,13.7-1.3V367.6z"/>
<path class="st0" d="M142.8,454.3c0,1.5-0.3,2.9-0.9,4.1c-0.6,1.2-1.4,2.3-2.5,3.2c-1,0.9-2.2,1.5-3.6,2c-1.4,0.5-2.8,0.7-4.4,0.7
	h-18.4v-38.7h19.3c1.4,0,2.6,0.3,3.7,0.9c1.1,0.6,2,1.3,2.8,2.3c0.8,0.9,1.4,2,1.8,3.2c0.4,1.2,0.6,2.4,0.6,3.6
	c0,1.9-0.5,3.7-1.4,5.3c-1,1.6-2.3,2.9-4.1,3.7c2.2,0.6,4,1.9,5.3,3.6C142.2,449.8,142.8,451.9,142.8,454.3 M118,429.8v12.9h12.3
	c0.9,0,1.7-0.2,2.4-0.5c0.7-0.3,1.4-0.8,1.9-1.4c0.5-0.6,0.9-1.3,1.3-2c0.3-0.8,0.5-1.6,0.5-2.5c0-0.9-0.2-1.8-0.4-2.6
	c-0.3-0.8-0.7-1.5-1.2-2.1c-0.5-0.6-1.1-1-1.8-1.4c-0.7-0.3-1.5-0.5-2.3-0.5H118z M137.9,453.4c0-0.9-0.2-1.7-0.5-2.5
	c-0.3-0.8-0.7-1.5-1.3-2.2c-0.5-0.6-1.2-1.1-1.9-1.5c-0.7-0.4-1.5-0.5-2.4-0.5H118V460h13.5c0.9,0,1.8-0.2,2.5-0.6
	c0.8-0.4,1.4-0.8,2-1.4c0.6-0.6,1-1.3,1.4-2.1C137.7,455.1,137.9,454.3,137.9,453.4"/>
<path class="st0" d="M159.9,464.8c-3,0-5.2-1-6.8-3c-1.5-2-2.3-5-2.3-9v-17.1h4.8v16.1c0,5.8,2,8.7,6.1,8.7c2,0,3.8-0.6,5.5-1.9
	c1.7-1.3,3-3,3.8-5.2v-17.8h4.8v22.6c0,1.1,0.5,1.7,1.5,1.7v4.1c-0.5,0.1-1,0.1-1.3,0.1c-0.3,0-0.6,0-0.9,0c-1,0-1.7-0.3-2.4-0.8
	c-0.6-0.6-1-1.3-1-2.1l-0.1-3.3c-1.3,2.1-2.9,3.8-5,4.9C164.6,464.2,162.4,464.8,159.9,464.8"/>
<path class="st0" d="M186.1,424.4h4.8v6h-4.8V424.4z M186.1,435.8h4.8v28.5h-4.8V435.8z"/>
<path class="st0" d="M200.9,424.4h4.8v32.5c0,1,0.3,1.9,0.8,2.5c0.6,0.6,1.4,0.9,2.4,0.9c0.4,0,0.9-0.1,1.4-0.2
	c0.6-0.1,1.1-0.3,1.5-0.5l0.8,3.9c-0.8,0.3-1.7,0.6-2.8,0.8c-1.1,0.2-2.1,0.3-2.9,0.3c-1.9,0-3.3-0.5-4.4-1.6
	c-1.1-1.1-1.6-2.5-1.6-4.4V424.4z"/>
<path class="st0" d="M230.3,464.8c-2,0-3.8-0.4-5.5-1.2c-1.7-0.8-3.1-1.9-4.3-3.2c-1.2-1.3-2.1-2.9-2.8-4.7c-0.7-1.8-1-3.6-1-5.6
	c0-2,0.3-3.9,1-5.7c0.6-1.8,1.5-3.4,2.7-4.7c1.1-1.3,2.5-2.4,4.1-3.2c1.6-0.8,3.3-1.2,5.2-1.2c2.3,0,4.3,0.6,6.1,1.8
	c1.8,1.2,3.2,2.7,4.3,4.4v-17h4.8v33.9c0,1.1,0.5,1.7,1.5,1.7v4.1c-0.5,0.1-0.9,0.1-1.2,0.2c-0.3,0-0.6,0.1-0.9,0.1
	c-0.9,0-1.8-0.3-2.5-1c-0.7-0.6-1.1-1.4-1.1-2.2v-2.4c-1.1,1.9-2.6,3.3-4.5,4.3C234.3,464.3,232.4,464.8,230.3,464.8 M231.4,460.6
	c0.9,0,1.8-0.2,2.7-0.5c0.9-0.3,1.8-0.8,2.6-1.4c0.8-0.6,1.5-1.3,2.1-2.1c0.6-0.8,1-1.6,1.2-2.5v-8.2c-0.3-0.9-0.8-1.8-1.5-2.6
	c-0.6-0.8-1.4-1.5-2.2-2.1c-0.8-0.6-1.7-1.1-2.6-1.4c-0.9-0.3-1.8-0.5-2.8-0.5c-1.4,0-2.7,0.3-3.8,0.9c-1.1,0.6-2.1,1.4-2.9,2.4
	c-0.8,1-1.4,2.1-1.9,3.4c-0.4,1.3-0.6,2.6-0.6,4c0,1.4,0.2,2.8,0.8,4.1c0.5,1.3,1.2,2.4,2.1,3.4c0.9,1,1.9,1.7,3.1,2.3
	C228.8,460.4,230,460.6,231.4,460.6"/>
<path class="st0" d="M255,424.4h4.8v6H255V424.4z M255,435.8h4.8v28.5H255V435.8z"/>
<path class="st0" d="M294.5,464.2h-4.8v-15.9c0-3.1-0.5-5.3-1.4-6.7c-0.9-1.4-2.3-2.1-4.2-2.1c-1,0-2,0.2-2.9,0.6
	c-1,0.4-1.9,0.9-2.8,1.6c-0.9,0.6-1.6,1.4-2.3,2.3c-0.7,0.9-1.1,1.9-1.5,3v17.2h-4.8v-28.5h4.4v6.1c1.1-2,2.8-3.6,4.9-4.8
	c2.1-1.2,4.4-1.8,7-1.8c1.6,0,3,0.3,4.1,0.9c1.1,0.6,2,1.4,2.6,2.5c0.7,1.1,1.1,2.3,1.4,3.8c0.3,1.4,0.4,3,0.4,4.7V464.2z"/>
<path class="st0" d="M315.5,464.6c-1.9,0-3.7-0.4-5.3-1.2c-1.6-0.8-3-1.9-4.2-3.2c-1.2-1.3-2.1-2.9-2.7-4.6c-0.6-1.8-1-3.6-1-5.5
	c0-2,0.3-3.9,1-5.7c0.6-1.8,1.5-3.4,2.7-4.7c1.2-1.3,2.6-2.4,4.2-3.2c1.6-0.8,3.4-1.2,5.4-1.2c2.4,0,4.5,0.6,6.2,1.7
	c1.7,1.2,3.2,2.6,4.4,4.4v-5.7h4.3v28.1c0,2-0.4,3.8-1.1,5.4c-0.8,1.5-1.8,2.9-3.1,3.9c-1.3,1-2.8,1.9-4.6,2.4
	c-1.8,0.5-3.6,0.8-5.6,0.8c-3.2,0-5.9-0.6-7.9-1.7c-2-1.1-3.7-2.6-5-4.6l2.8-2.5c1.1,1.7,2.6,2.9,4.4,3.8c1.8,0.8,3.7,1.3,5.8,1.3
	c1.3,0,2.6-0.2,3.7-0.5c1.2-0.4,2.2-0.9,3.1-1.6c0.9-0.7,1.6-1.6,2.1-2.7c0.5-1.1,0.8-2.4,0.8-3.9v-5c-0.6,0.9-1.2,1.7-1.9,2.4
	c-0.7,0.7-1.6,1.3-2.4,1.8c-0.9,0.5-1.8,0.9-2.8,1.1C317.5,464.4,316.5,464.6,315.5,464.6 M317,460.6c1,0,2-0.2,2.9-0.5
	c0.9-0.4,1.8-0.8,2.6-1.4c0.8-0.6,1.5-1.3,2-2c0.5-0.8,0.9-1.5,1.1-2.3v-8.2c-0.4-1-0.9-1.9-1.6-2.7c-0.6-0.8-1.4-1.5-2.2-2.1
	c-0.8-0.6-1.7-1.1-2.6-1.4c-0.9-0.3-1.9-0.5-2.8-0.5c-1.5,0-2.8,0.3-3.9,0.9c-1.1,0.6-2.1,1.4-2.9,2.5c-0.8,1-1.4,2.2-1.9,3.5
	c-0.4,1.3-0.7,2.6-0.7,3.9c0,1.4,0.3,2.8,0.8,4c0.5,1.3,1.2,2.4,2.1,3.3c0.9,1,1.9,1.7,3.1,2.3C314.3,460.4,315.6,460.6,317,460.6"
	/>
<polygon class="st0" points="380.7,429.9 367.3,429.9 367.3,464.2 362.4,464.2 362.4,429.9 349.1,429.9 349.1,425.5 380.7,425.5 "/>
<path class="st0" d="M388.5,464.2v-38.7H405c1.7,0,3.3,0.4,4.7,1.1c1.4,0.7,2.7,1.7,3.7,2.8c1,1.2,1.8,2.5,2.4,4
	c0.6,1.5,0.9,3,0.9,4.5c0,1.4-0.2,2.6-0.6,3.9c-0.4,1.3-0.9,2.4-1.6,3.4c-0.7,1-1.6,1.9-2.6,2.6c-1,0.7-2.1,1.3-3.4,1.6l9.4,14.8
	h-5.6l-8.8-13.9h-10.3v13.9H388.5z M393.4,446h11.7c1,0,1.9-0.2,2.8-0.7c0.8-0.4,1.5-1,2.1-1.8c0.6-0.7,1-1.6,1.4-2.6
	c0.3-1,0.5-2,0.5-3.1c0-1.1-0.2-2.1-0.6-3.1c-0.4-1-0.9-1.8-1.5-2.6c-0.6-0.7-1.4-1.3-2.2-1.8c-0.9-0.4-1.8-0.6-2.7-0.6h-11.4V446z"
	/>
<path class="st0" d="M442.4,460.1c2.3,0,4.1-0.4,5.6-1.3c1.5-0.9,2.7-2,3.6-3.4c0.9-1.4,1.5-3,1.9-4.8c0.4-1.8,0.6-3.6,0.6-5.5
	v-19.6h4.9v19.6c0,2.6-0.3,5.1-0.9,7.5c-0.6,2.3-1.6,4.4-2.9,6.2c-1.3,1.8-3,3.2-5.1,4.2c-2.1,1-4.6,1.6-7.6,1.6
	c-3.1,0-5.7-0.6-7.8-1.6c-2.1-1.1-3.8-2.5-5.1-4.3c-1.3-1.8-2.2-3.9-2.8-6.2c-0.6-2.4-0.8-4.8-0.8-7.2v-19.6h4.9v19.6
	c0,1.9,0.2,3.8,0.6,5.6c0.4,1.8,1,3.4,1.9,4.8c0.9,1.4,2.1,2.5,3.5,3.4C438.3,459.7,440.1,460.1,442.4,460.1"/>
<path class="st0" d="M492.5,433.6c-0.4-0.5-1-1-1.8-1.5c-0.7-0.5-1.5-0.9-2.5-1.3c-0.9-0.4-1.9-0.7-3-0.9c-1.1-0.2-2.2-0.3-3.4-0.3
	c-3,0-5.2,0.6-6.6,1.7c-1.4,1.1-2.1,2.7-2.1,4.6c0,1.1,0.2,1.9,0.6,2.6c0.4,0.7,1,1.3,1.9,1.8c0.9,0.5,1.9,0.9,3.2,1.3
	c1.3,0.4,2.8,0.7,4.5,1.1c2,0.4,3.8,0.9,5.4,1.5c1.6,0.6,3,1.3,4.1,2.1c1.1,0.8,2,1.9,2.6,3.1c0.6,1.2,0.9,2.7,0.9,4.4
	c0,1.9-0.4,3.5-1.1,4.8c-0.7,1.4-1.7,2.5-3,3.4c-1.3,0.9-2.7,1.5-4.5,2c-1.7,0.4-3.6,0.6-5.6,0.6c-3,0-5.8-0.5-8.5-1.4
	c-2.7-0.9-5.1-2.3-7.3-4.1l2.3-4.1c0.6,0.6,1.3,1.2,2.3,1.9c0.9,0.6,2,1.2,3.2,1.7c1.2,0.5,2.5,0.9,3.8,1.2c1.4,0.3,2.8,0.5,4.3,0.5
	c2.8,0,4.9-0.5,6.4-1.5c1.5-1,2.3-2.5,2.3-4.4c0-1.1-0.2-2-0.7-2.8c-0.5-0.7-1.2-1.4-2.2-1.9c-0.9-0.5-2.1-1-3.5-1.4
	c-1.4-0.4-3-0.9-4.8-1.3c-2-0.5-3.7-1-5.2-1.5c-1.5-0.5-2.7-1.2-3.7-2c-1-0.8-1.8-1.7-2.3-2.8c-0.5-1.1-0.8-2.4-0.8-3.9
	c0-1.9,0.3-3.5,1-4.9c0.7-1.4,1.7-2.6,2.9-3.6c1.2-1,2.7-1.7,4.4-2.2c1.7-0.5,3.6-0.7,5.6-0.7c2.6,0,5,0.4,7.1,1.2
	c2.1,0.8,4,1.9,5.6,3.2L492.5,433.6z"/>
<polygon class="st0" points="532.8,429.9 519.4,429.9 519.4,464.2 514.5,464.2 514.5,429.9 501.2,429.9 501.2,425.5 532.8,425.5 "/>
<path class="st1" d="M402.4,37.8C385.8,14.7,359,0.9,330.6,0.9c-48.7,0-88.3,39.6-88.3,88.3c0,48.7,39.6,88.3,88.3,88.3
	c29.3,0,56.6-14.5,73-38.7c-6.5-5.5-15-8.7-24.2-8.7c-7,0-13.5,1.8-19,5.1c-8.8,5.7-19,8.9-29.8,8.9c-30.2,0-54.8-24.6-54.8-54.8
	c0-30.2,24.6-54.8,54.8-54.8c10,0,19.6,2.8,28,7.8c5.6,3.3,11.9,4.9,18.9,4.9c7,0,13.6-1.9,19.2-5.2L402,38L402.4,37.8z"/>
<path class="st1" d="M441.7,241.1H234.2h-30c-4.4,0-4.4,6.8,0,6.8h207.5h30C446.1,247.9,446.1,241.1,441.7,241.1"/>
<path class="st1" d="M404.4,219.8H262.2h-20.7c-4.4,0-4.4,6.8,0,6.8h142.2h20.7C408.8,226.6,408.8,219.8,404.4,219.8"/>
<path class="st1" d="M381.3,198.5H264.6c-4.4,0-4.4,6.8,0,6.8h116.8C385.7,205.3,385.7,198.5,381.3,198.5"/>
</svg>
