<?xml version="1.0" encoding="utf-8"?>
<!-- Generator: Adobe Illustrator 19.0.0, SVG Export Plug-In . SVG Version: 6.00 Build 0)  -->
<svg version="1.1" id="Layer_1" xmlns="http://www.w3.org/2000/svg" xmlns:xlink="http://www.w3.org/1999/xlink" x="0px" y="0px"
	 viewBox="0 0 480 480" style="enable-background:new 0 0 480 480;" xml:space="preserve">
<style type="text/css">
	.st0{fill:#D51F37;}
	.st1{fill:#FFFFFF;}
</style>
<circle class="st0" cx="240" cy="241" r="241"/>
<g>
	<path class="st1" d="M295.1,311.6l54.4-129.8l-54.9-21.7l2.4,39.6l-54-21.3l-54,21.3l3.6-58l-26.9-32.6l-35.2-13.9l61.7,216.4
		H295.1z M216.7,218.4h52.6v20h-52.6V218.4z M216.7,258.3h52.6v20h-52.6V258.3z"/>
	<path class="st1" d="M191.5,331.6l-5,30h112.9l-5-30H191.5z"/>
	<path class="st1" d="M162.4,381.5l-5,30h171.2l-5-30H162.4z"/>
	<path class="st1" d="M212.9,135.1l-2.1,34.5l32.2-12.7l32.2,12.7c-0.5-8.6-1.6-25.9-2.1-34.5l22-26.7l-33.5-8.7L243,70.5
		l-18.6,29.2l-33.5,8.7C196.2,114.8,207.7,128.7,212.9,135.1z"/>
</g>
</svg>
