<?xml version="1.0" encoding="utf-8"?>
<!-- Generator: Adobe Illustrator 19.0.0, SVG Export Plug-In . SVG Version: 6.00 Build 0)  -->
<svg version="1.1" id="Layer_1" xmlns="http://www.w3.org/2000/svg" xmlns:xlink="http://www.w3.org/1999/xlink" x="0px" y="0px"
	 viewBox="0 0 512 495.9" style="enable-background:new 0 0 512 495.9;" xml:space="preserve">
<style type="text/css">
	.st0{clip-path:url(#SVGID_2_);fill:#FFFFFF;}
</style>
<g>
	<defs>
		<rect id="SVGID_1_" width="512" height="495.9"/>
	</defs>
	<clipPath id="SVGID_2_">
		<use xlink:href="#SVGID_1_"  style="overflow:visible;"/>
	</clipPath>
	<path class="st0" d="M484.1,393.5l-161.3,10.7c3.5,28.3-17.8,53.5-47,53.5c-17.4,0-22.1-5.3-73.1-37.3c-12.9-8.1-6.9-27.9,8.1-27.7
		c5.7,0,3.6-0.3,55.8,32.3c9.9,6.2,24,1.2,26.2-11.7c0.5-2.7,1.3-11.7-7.5-17.5c-0.1,0-0.1-0.1-0.2-0.1l-73.7-46.9v0
		c-41.1-26.1-59.7-41.9-109.3-27.5c-1.4,0.4-2.8,0.6-4.2,0.6H12.3c-6.8,0-12.3,5.5-12.3,12.3v108.2c0,6.8,5.5,12.3,12.3,12.3H119
		c2.5,0,5,0.6,7.3,1.9l15.9,8.8c50.2,27.9,105.5,37.1,155.6,26L407,467.1c0.5-0.1,84-22,84.5-22.1c6.8-1.5,12.6-5.6,16.4-11.5
		C519.2,415.9,506,392,484.1,393.5"/>
	<path class="st0" d="M359.7,130l-10.4-13.5L338.8,130c-1.7,2.2-4.1,3.9-6.7,4.9l-16.5,6l9.7,13.7c1.7,2.5,2.7,5.4,2.8,8.4l0.4,17.5
		l16.2-5.2c1.5-0.5,3-0.7,4.6-0.7c1.5,0,3.1,0.2,4.6,0.7l16.3,5.2l0.3-17.5c0.1-3,1-6,2.8-8.5L383,141l-16.5-6
		C363.8,134,361.5,132.3,359.7,130"/>
	<path class="st0" d="M485.1,95.5l-75-27.3L362.5,6.4c-6.6-8.6-19.6-8.6-26.2,0l-47.9,61.8l-74.8,27.3c-10.3,3.8-14.1,16.2-7.8,25.1
		l45,63.3l1.6,80.4c0.2,11.1,11.1,18.8,21.6,15.4l75.2-24.2l75.4,24.2c10.6,3.4,21.4-4.4,21.6-15.5l1.4-80.3l45.2-63.2
		C499.3,111.8,495.4,99.2,485.1,95.5 M418.8,142.3l-18.5,25.9l-0.6,33c-0.1,4.7-2.4,9.2-6.3,11.9c-2.6,1.8-5.6,2.8-8.7,2.8
		c-1.5,0-3.1-0.2-4.6-0.7l-30.9-9.9l-30.8,9.9c-4.5,1.5-9.4,0.7-13.3-2.1c-3.9-2.8-6.2-7.2-6.3-11.9l-0.7-33.1l-18.4-26
		c-2.7-3.8-3.5-8.7-2.1-13.1c1.4-4.5,4.8-8,9.2-9.6l30.9-11.3l19.8-25.5c2.8-3.7,7.2-5.8,11.9-5.8h0c4.6,0,9,2.2,11.9,5.8l19.6,25.5
		l31,11.3c4.4,1.6,7.8,5.2,9.2,9.7C422.4,133.6,421.6,138.5,418.8,142.3"/>
</g>
</svg>
