<?xml version="1.0" encoding="utf-8"?>
<!-- Generator: Adobe Illustrator 19.0.0, SVG Export Plug-In . SVG Version: 6.00 Build 0)  -->
<svg version="1.1" id="Layer_1" xmlns="http://www.w3.org/2000/svg" xmlns:xlink="http://www.w3.org/1999/xlink" x="0px" y="0px"
	 viewBox="0 0 480 480" style="enable-background:new 0 0 480 480;" xml:space="preserve">
<style type="text/css">
	.st0{fill:#D51F37;}
	.st1{fill:#FFFFFF;}
</style>
<circle class="st0" cx="240" cy="241" r="241"/>
<g>
	<g>
		<path class="st1" d="M358.9,295.9h-18.3v-36.6c0-5-4.1-9.1-9.1-9.1h-82.3v-64h45.7c5,0,9.1-4.1,9.1-9.1v-54.9c0-5-4.1-9.1-9.1-9.1
			H185.1c-5,0-9.1,4.1-9.1,9.1V177c0,5,4.1,9.1,9.1,9.1h45.7v64h-82.3c-5,0-9.1,4.1-9.1,9.1v36.6h-18.3c-5,0-9.1,4.1-9.1,9.1v54.9
			c0,5,4.1,9.1,9.1,9.1H176c5,0,9.1-4.1,9.1-9.1V305c0-5-4.1-9.1-9.1-9.1h-18.3v-27.4h73.1v27.4h-18.3c-5,0-9.1,4.1-9.1,9.1v54.9
			c0,5,4.1,9.1,9.1,9.1h54.9c5,0,9.1-4.1,9.1-9.1V305c0-5-4.1-9.1-9.1-9.1h-18.3v-27.4h73.1v27.4H304c-5,0-9.1,4.1-9.1,9.1v54.9
			c0,5,4.1,9.1,9.1,9.1h54.9c5,0,9.1-4.1,9.1-9.1V305C368,300,363.9,295.9,358.9,295.9z"/>
	</g>
</g>
</svg>
